<?xml version="1.0"?>
<svg xmlns="http://www.w3.org/2000/svg" id="Layer_1" height="512px" viewBox="0 0 512 512" width="512px" data-name="Layer 1" class=""><g><g fill="#d4e1f4"><path d="m139.006 217.177-24.827-76.359 19.446-5.888 24.824 76.349z" data-original="#D4E1F4" class=""/><path d="m169.935 207.796-24.822-76.344 10.933-3.31 24.821 76.338z" data-original="#D4E1F4" class=""/><path d="m231.21 203.1c-7.427 0-13.47-5.7-13.47-12.712s6.043-12.712 13.47-12.712 13.47 5.7 13.47 12.712-6.043 12.712-13.47 12.712z" data-original="#D4E1F4" class=""/><path d="m47.354 184.862 15.367 47.265.207-.063-19.574-60.202-20.274 6.139 4.207 12.937z" data-original="#D4E1F4" class=""/><path d="m114.947 182.686 4.11 12.643.207-.063-8.317-25.58-50.691 15.35 4.206 12.938z" data-original="#D4E1F4" class=""/><path d="m143.006 230.177-24.827-76.359 19.446-5.888 24.824 76.349z" data-original="#D4E1F4" class=""/><path d="m173.935 220.796-24.822-76.344 10.933-3.31 24.821 76.338z" data-original="#D4E1F4" class=""/><path d="m378.42 75.027 20.907 63.322.265-.08-25.172-76.242-206.886 62.637 4.207 12.937z" data-original="#D4E1F4" class=""/><path d="m448.695 35.939 31.777 96.245.265-.08-36.042-109.165-64.132 19.42 4.266 12.92z" data-original="#D4E1F4" class=""/><path d="m488.5 78.207a72.241 72.241 0 0 0 -1.96-7.364c-5.4-16.6-14.249-28.661-24.673-34.176l4.36 13.207c9.048 4.937 16.886 14.819 22.273 28.333z" data-original="#D4E1F4" class=""/></g><path d="m497.95 67.132c-7.98-24.541-23.062-40.993-40.854-44.91l-2.21-6.694a8.1 8.1 0 0 0 -10.02-5.179l-71.696 21.711a8.093 8.093 0 0 0 -4.8 3.967 7.869 7.869 0 0 0 -.5 6.137l2.794 8.464-211.972 64.172a5.849 5.849 0 0 0 -.62.164c-.1.033-.2.075-.294.113l-21.517 6.514a5.916 5.916 0 0 0 -.61.163c-.095.031-.185.07-.277.106l-28.487 8.624a8.181 8.181 0 0 0 -4.856 4.011 7.931 7.931 0 0 0 -.518 6.173l5.722 17.6-50.691 15.35-2.983-9.177a8.1 8.1 0 0 0 -10.02-5.177l-27.836 8.436a8.09 8.09 0 0 0 -4.8 3.967 7.86 7.86 0 0 0 -.513 6.111l22.06 67.846a8.1 8.1 0 0 0 10.02 5.178l27.828-8.433a8.1 8.1 0 0 0 4.8-3.968 7.851 7.851 0 0 0 .512-6.109l-3.336-10.26 50.691-15.351 5.8 17.835a8.191 8.191 0 0 0 10.133 5.231l77.51-23.51a6 6 0 0 0 -3.483-11.483l-20.574 6.246-24.819-76.332 206.886-62.641 25.172 76.242-150.682 45.623a6 6 0 1 0 3.477 11.485l150.969-45.709 3.059 9.266a8.1 8.1 0 0 0 10.021 5.18l71.695-21.714a8.093 8.093 0 0 0 4.8-3.967 7.872 7.872 0 0 0 .5-6.136l-1.982-6c9.467-11.214 14.623-34.184 6.501-59.165zm-455.295 171.068-19.575-60.2 20.274-6.139 19.574 60.2zm25.918-27.587-8.317-25.581 50.691-15.35 8.317 25.58zm45.606-69.8 19.446-5.888 24.824 76.349-19.443 5.9zm66.688 63.662-10.932 3.325-24.822-76.344 10.933-3.31zm235.739-52.956-36.043-109.16 64.137-19.42 36.037 109.161zm45.259-114.852c10.424 5.515 19.275 17.573 24.673 34.176 5.366 16.5 3.763 31.1-.04 40.434z" fill="#0635c9" data-original="#0635C9" class="" data-old_color="#0635c9" style="fill:#FD7272"/><path d="m331.077 96.9a6.018 6.018 0 0 0 1.741-.259l7.17-2.171a6 6 0 0 0 -3.477-11.486l-7.171 2.172a6 6 0 0 0 1.737 11.744z" fill="#0635c9" data-original="#0635C9" class="" data-old_color="#0635c9" style="fill:#FD7272"/><path d="m265.73 116.686a5.979 5.979 0 0 0 1.741-.259l48.962-14.827a6 6 0 1 0 -3.478-11.486l-48.961 14.827a6 6 0 0 0 1.736 11.744z" fill="#0635c9" data-original="#0635C9" class="" data-old_color="#0635c9" style="fill:#FD7272"/><path d="m253.521 202.291a23.985 23.985 0 0 0 3.159-11.9c0-13.626-11.426-24.712-25.47-24.712s-25.47 11.086-25.47 24.712a24.012 24.012 0 0 0 3.653 12.736l-112.599 287.302a6 6 0 1 0 11.173 4.379l69.933-178.436 47.312 22.967v156.661a6 6 0 0 0 12 0v-156.321l49.618-19.461 67.987 173.558a6 6 0 1 0 11.173-4.377zm-22.311-24.616c7.427 0 13.47 5.7 13.47 12.712s-6.043 12.713-13.47 12.713-13.47-5.7-13.47-12.712 6.043-12.713 13.47-12.713zm-48.92 127.491 36.526-93.2a25.776 25.776 0 0 0 6.394 2.435v111.599zm54.92 21.623v-112.389a25.776 25.776 0 0 0 7.066-2.811l38.176 97.455z" fill="#1ae5be" data-original="#1AE5BE" class="active-path" data-old_color="#1ae5be" style="fill:#2C5F65"/></g> </svg>
